/* XPM */
static const char *icon_xpm[] = {
/* columns rows colors chars-per-pixel */
"36 36 249 2",
"   c #000000",
".  c #0A0200",
"X  c #0A0A06",
"o  c #00020B",
"O  c #000A0D",
"+  c #0C0C0C",
"@  c #170400",
"#  c #11110D",
"$  c #040217",
"%  c #000E11",
"&  c #001115",
"*  c #0E1012",
"=  c #00161C",
"-  c #00191E",
";  c #131312",
":  c #11121D",
">  c #1B1B1B",
",  c #240000",
"<  c #310000",
"1  c #241100",
"2  c #000125",
"3  c #00002C",
"4  c #001721",
"5  c #001C23",
"6  c #001E2C",
"7  c #000135",
"8  c #00023D",
"9  c #050A39",
"0  c #00232B",
"q  c #052731",
"w  c #002B34",
"e  c #00333C",
"r  c #173130",
"t  c #242424",
"y  c #2A2A2A",
"u  c #363636",
"i  c #3B3B3B",
"p  c #500000",
"a  c #770606",
"s  c #402000",
"d  c #532901",
"f  c #763B01",
"g  c #5F2D2D",
"h  c #000242",
"j  c #000253",
"k  c #00005A",
"l  c #003947",
"z  c #003E54",
"x  c #21214A",
"c  c #000066",
"v  c #000374",
"b  c #000678",
"n  c #101671",
"m  c #002662",
"M  c #004947",
"N  c #00494F",
"B  c #12414C",
"V  c #004354",
"C  c #004A58",
"Z  c #3C494E",
"A  c #37515C",
"S  c #2F6356",
"D  c #045164",
"F  c #005269",
"G  c #007A69",
"H  c #006478",
"J  c #00697D",
"K  c #434343",
"L  c #484848",
"P  c #535353",
"I  c #5E5E5E",
"U  c #636357",
"Y  c #466460",
"T  c #646464",
"R  c #6B6B6B",
"E  c #6A6A75",
"W  c #717171",
"Q  c #7A7A7A",
"!  c #8C0000",
"~  c #BE0000",
"^  c #B01F1F",
"/  c #DA0000",
"(  c #EC0000",
")  c #894400",
"_  c #954B00",
"`  c #A35300",
"'  c #B35900",
"]  c #B25914",
"[  c #C56200",
"{  c #D06807",
"}  c #DB6E00",
"|  c #E77300",
" . c #F57C00",
".. c #EB7615",
"X. c #914848",
"o. c #AF584C",
"O. c #A47E7E",
"+. c #008979",
"@. c #00917E",
"#. c #000180",
"$. c #00048B",
"%. c #002790",
"&. c #0004AC",
"*. c #0202B6",
"=. c #000BB1",
"-. c #0000BD",
";. c #000DBC",
":. c #0010B5",
">. c #272BAE",
",. c #3A3CA1",
"<. c #2A2FBD",
"1. c #006484",
"2. c #006D82",
"3. c #006B8A",
"4. c #00748C",
"5. c #006C92",
"6. c #007292",
"7. c #007A92",
"8. c #00769A",
"9. c #227E9A",
"0. c #007DA0",
"q. c #585284",
"w. c #474797",
"e. c #616283",
"r. c #746D84",
"t. c #686A9E",
"y. c #4C4CB9",
"u. c #5860B7",
"i. c #000AC3",
"p. c #0000CC",
"a. c #000DCE",
"s. c #0112CE",
"d. c #0B17CD",
"f. c #151CCC",
"g. c #010CD4",
"h. c #0302D8",
"j. c #000BDC",
"k. c #0012D1",
"l. c #0012DE",
"z. c #1710D5",
"x. c #0023C1",
"c. c #0033D2",
"v. c #3939CE",
"b. c #0000E4",
"n. c #000BE3",
"m. c #0000EB",
"M. c #000BEB",
"N. c #0012E1",
"B. c #1A1AE0",
"V. c #0000F4",
"C. c #000DF4",
"Z. c #0001FE",
"A. c #000DFE",
"S. c #1924E7",
"D. c #3840D1",
"F. c #037DCB",
"G. c #5C5CD6",
"H. c #009682",
"J. c #009E88",
"K. c #008195",
"L. c #00839C",
"P. c #009699",
"I. c #00A791",
"U. c #00AD95",
"Y. c #18A390",
"T. c #0085A3",
"R. c #0089A5",
"E. c #0084AE",
"W. c #008DAB",
"Q. c #0098AD",
"!. c #0085B0",
"~. c #008CB6",
"^. c #0093B3",
"/. c #0596BC",
"(. c #009BBA",
"). c #00A2BA",
"_. c #408193",
"`. c #42A0BA",
"'. c #5FA4B5",
"]. c #00C6AC",
"[. c #00D1BC",
"{. c #0094C2",
"}. c #0081D5",
"|. c #009CD0",
" X c #00A2C4",
".X c #03A7CA",
"XX c #00B2CC",
"oX c #05A7D4",
"OX c #00ABD6",
"+X c #00B3D3",
"@X c #00BCD9",
"#X c #00ACE3",
"$X c #00B2E3",
"%X c #00BCE4",
"&X c #00B5EC",
"*X c #00BAEC",
"=X c #00B5F0",
"-X c #00BBF4",
";X c #00BEF8",
":X c #00C2D5",
">X c #3ED0C8",
",X c #00FFDD",
"<X c #00C4E4",
"1X c #00C3EC",
"2X c #00D6E9",
"3X c #00C3F0",
"4X c #00CAF4",
"5X c #00C3F9",
"6X c #00CBFC",
"7X c #00D4F3",
"8X c #00D5FE",
"9X c #00DBFE",
"0X c #00FCE6",
"qX c #00FFE9",
"wX c #00E6F0",
"eX c #00E4FF",
"rX c #00EAFF",
"tX c #00FFF3",
"yX c #00F4FF",
"uX c #00FEFE",
"iX c #818184",
"pX c #8C8C8C",
"aX c #97918E",
"sX c #829095",
"dX c #959595",
"fX c #999994",
"gX c #9C9C9C",
"hX c #8889A8",
"jX c #A3A3A3",
"kX c #A8A8A8",
"lX c #ADADAD",
"zX c #B0A9A7",
"xX c #B4B4B4",
"cX c #BBBCBD",
"vX c #C2C2BC",
"bX c #A5A6C0",
"nX c #AFB0C8",
"mX c #ADD3CF",
"MX c #C5C5C4",
"NX c #C8C7C7",
"BX c #CACAC7",
"VX c #CDCCCC",
"CX c #D2CDCC",
"ZX c #D7D6C7",
"AX c #C4C4D1",
"SX c #CDCDD3",
"DX c #D4D3D3",
"FX c #D8D3D2",
"GX c #DCDCDB",
/* pixels */
"        & N :XyXrXeXeXeX9X3X4.&                                         ",
"    q Q.2XuXyXyXyXyXrXrXeX9XR.2.&                                       ",
"5 Q.9X9XeXrXyXtXyXyXyXyXrX7XW.L.4.%                                     ",
"@X<X<X1X4X8XeXrXyXuXwXP.N e L.L.7.H                 .                   ",
"7X+X@X:X:X<X7X7XXXw       - W.R.L.2.O             . ( @                 ",
"N K.XX+X@X1X(.l           w (.R.R.2.                ^ X.  @ ! <         ",
"    O C 4.l               V .X^.R.H                 P cXg ~ / p         ",
"                           X%X(.W.N                 > jXO.a ,           ",
"                        w eX4X X^.w J W.R.3.V       y SXL               ",
"                      O *X8X8XOX(.yXrXeX8X*XOX~.0   I DX;               ",
"                      4.4X8X8X1X<XrXrXrXeX9X3XoX8.  gXjX                ",
"                  . B 1X1X4X8X4X9XeXrXrXrXrXXX^..XD CXL                 ",
"                  T cX.X%X3X6X8XeXeXeXeX).&   o 3.`.CXX                 ",
"            8 $.i.D.DX'.+X%X4X8X9XeX:XN         9.jXsX                  ",
"        o ;.C.A.A.A.bXcXF.OX%X4X8X7.O       ; pXzXsX/.V                 ",
"      2 M.A.A.A.A.A.S.FXq.x.}.}.c.        u NXlX`.*XOX0.                ",
"b   o i.M.C.C.A.A.i.2 iXvXn j.j.M.h     I VXaXoX*X&X$XT..               ",
":.k 7 n.n.n.M.M.b     t VXiX<.f.g.#.  T DXdXq ;X*X*X-XF                 ",
":.:.=.g.g.j.j.j       > MXDXGXSXnXhXfXDXe.  3.=X&X*XoXo         0 C z - ",
"k.k.s.a.a.g.=.        T MXt y E bXAXDXe.-.  {.*X*X*XH   & e W.9X%Xw   4 ",
"N.N.N.N.i.g.h       X MXR       k >.NX,.m.9 &X-X*X$XD (.<X9XeX^.O       ",
"N.l.N.N.l.d.# > y i pXcXX         : cXt.&.%.5X-X=X5X8X8X9X9X(.          ",
"s.s.k.s.d.nXGXGXGXDXMXMXu         o lXaX  = #X;X&X=X5X6X9X^.            ",
":.i.;.;.u.cXy * X     gXSXx       X gXkX+   6.;X!.~.|.#XE.              ",
"m =.#.n BXI           X w.Z.c k w.BXVXVXxXP & &X1.1.6.z               o ",
"+.r t pXcX;               $.Z.V.B.U o + gXGXkX_.8.V o                 4.",
"@.Y.mXDXdX                2 b.j .         i kXFXP                   - /.",
"J.@.+.Y VXK               7 b.2               pXpX                  6.0 ",
"I.H.U.I.r.v.o           . 9 h.o               P xX                4 8.  ",
"U.].,X].o h.&.7 o         d {                 t DXX               5.    ",
"[.qX0XG $ p.b.V.Z.V.] ` f _ [                 X NXx             % 4     ",
"tXtX0XS G.-.o o $ h f ` |  . .} ) 1           pXGXZXT           %       ",
"uXuX>XFXfXX               ' _ _ } o.h.v 3 3 y.cXL Q DXjXy . * t Z T I X ",
"uXP.# xXT                 | s   . * v m.Z.b.*.*     t lXSXjXcXNXDXlXdXy ",
"M     pXjX                ..@           8 V.k .         gXlXT A *   W Q ",
"  X X x BXt             8 z.o             c B.          MXi l 6     t dX"
};
